PathFileType	4	(X/Y/Z)	c:/Users/goper/Files/vsCode/490R/osim_files/C17/C17_SSWS_06.trc
DataRate	CameraRate	NumFrames	NumMarkers	Units                	OrigDataRate	OrigDataStartFrame	OrigNumFrames
250.00	250.00	9	36	mm	250.0	949	2529
                Frame#	Time	LPSIS			LASIS			LTH1			LTH2			LTH3			LTH4			LLFE			LMFE			LSH1			LSH2			LSH3			LSH4			LLMAL			LMMAL			LCAL			LMTP5			LTOE			LMTP1			RPSIS			RASIS			RTH1			RTH2			RTH3			RTH4			RLFE			RMFE			RSH1			RSH2			RSH3			RSH4			RLMAL			RMMAL			RCAL			RMTP1			RTOE			RMTP5		
		X1	Y1	Z1	X2	Y2	Z2	X3	Y3	Z3	X4	Y4	Z4	X5	Y5	Z5	X6	Y6	Z6	X7	Y7	Z7	X8	Y8	Z8	X9	Y9	Z9	X10	Y10	Z10	X11	Y11	Z11	X12	Y12	Z12	X13	Y13	Z13	X14	Y14	Z14	X15	Y15	Z15	X16	Y16	Z16	X17	Y17	Z17	X18	Y18	Z18	X19	Y19	Z19	X20	Y20	Z20	X21	Y21	Z21	X22	Y22	Z22	X23	Y23	Z23	X24	Y24	Z24	X25	Y25	Z25	X26	Y26	Z26	X27	Y27	Z27	X28	Y28	Z28	X29	Y29	Z29	X30	Y30	Z30	X31	Y31	Z31	X32	Y32	Z32	X33	Y33	Z33	X34	Y34	Z34	X35	Y35	Z35	X36	Y36	Z36

949	3.79200	1308.07532	1086.52039	305.11401	1117.08472	1028.45422	410.78986	1262.52832	719.52136	432.74631	1260.75769	676.11011	424.72711	0.00000	0.00000	0.00000	1203.82129	672.10675	424.62695	1286.35400	509.81750	391.22952	1286.74536	515.59918	268.15646	1386.79468	288.88098	378.56555	1391.13013	246.23940	371.83014	1325.09106	274.16428	379.32001	1339.23169	232.97696	370.99786	1397.63953	103.12691	342.29175	1385.44800	113.33097	256.72324	1479.98047	70.82486	298.79181	1289.25671	35.92450	361.74353	1231.68713	52.14129	291.86938	1252.18420	36.85871	243.42761	1301.10352	1080.15759	231.73936	1121.27039	1043.68652	144.81625	1090.84583	754.89551	79.95042	1074.77246	711.85089	87.33441	1037.52136	773.28326	97.75320	1026.66956	725.48315	93.27255	982.87695	514.41443	112.56602	998.99939	521.12408	238.80542	1025.48352	306.88354	110.66561	1014.65637	266.30380	121.86240	964.48669	318.96634	113.47808	959.97015	273.29456	124.09478	980.38806	95.77257	153.61293	943.25403	119.38340	236.92923	1032.24109	48.75820	212.98346	798.88269	75.72400	210.73538	797.40283	102.50819	164.42451	853.27527	56.87473	108.80054
950	3.79600	1302.15137	1085.41968	304.95508	1111.24500	1027.32825	410.90765	1258.98096	719.55188	432.71060	1257.42761	676.04919	424.69040	0.00000	0.00000	0.00000	1200.62195	671.69049	424.78763	1284.15527	509.91202	391.32257	1284.51147	515.62329	268.27505	1384.64160	289.11469	378.11609	1389.51074	246.46719	371.62967	1323.94922	274.39120	379.46338	1338.15698	233.42213	371.19711	1397.32751	103.59995	342.31033	1385.02014	113.70721	256.73480	1479.72998	71.50780	298.73746	1290.16418	36.13989	361.80453	1231.63477	52.07640	291.88385	1252.17224	36.84260	243.41386	1295.07361	1079.05676	231.56094	1115.10120	1042.42065	144.80620	1084.90930	753.84094	80.28065	1069.17957	711.06226	87.23623	1031.11792	772.21344	97.90931	1020.06226	724.32385	93.44212	975.53802	514.01825	113.31414	992.21442	520.20312	239.59920	1013.20978	305.57968	111.36004	999.30481	264.08234	123.05840	952.49780	319.21918	114.03520	946.88501	273.58737	124.59059	962.74548	95.58096	154.08342	926.07977	119.98332	237.41756	1013.67194	47.61350	213.34129	780.80072	79.65153	211.24619	779.89832	106.41740	164.92976	834.69287	59.49892	109.20834
951	3.80000	1296.16479	1084.24866	304.77579	1105.39478	1026.10205	411.00800	1255.39526	719.54297	432.69128	1254.02588	675.98096	424.66232	1191.76404	715.48822	433.33206	1201.85950	670.70782	424.72055	1281.86890	509.96436	391.42096	1282.42407	515.89966	268.20367	1383.44946	289.61700	378.21417	1388.90100	246.96532	371.90353	0.00000	0.00000	0.00000	1337.19128	233.71063	371.29501	1397.50696	104.03383	342.47397	1384.60034	114.14468	256.74542	1479.51245	72.19621	298.80038	1289.20068	35.86747	361.78238	1231.55933	51.97250	291.87036	1252.07190	36.81177	243.44405	1289.03918	1077.91333	231.38345	1108.80957	1041.23254	144.86855	1078.73804	752.44781	80.80527	1063.80042	710.34125	86.98241	1025.01782	770.91638	98.33903	1013.93799	723.04712	93.91077	968.11969	513.58319	114.23948	985.55682	519.35675	240.42152	1000.96735	304.44504	112.09620	986.11060	263.24188	123.64417	940.74072	319.34116	114.86705	933.96240	274.04358	125.06873	945.21704	95.55194	154.56076	909.21649	120.80616	237.94688	994.73541	46.08440	213.84494	763.00287	83.87503	211.73921	762.65436	110.61758	165.41035	816.38403	62.53809	109.73828
952	3.80400	1290.19788	1083.07068	304.62036	1099.54236	1024.93640	411.09961	1251.66113	719.49756	432.67126	1250.50391	675.90332	424.64499	0.00000	0.00000	0.00000	1194.26428	670.68378	426.09860	1279.35095	509.97180	391.46967	1279.71606	515.77258	268.36890	1383.11572	290.43002	378.75449	1387.83777	247.55280	371.99271	1320.96643	274.43768	379.66089	1335.80786	233.83795	371.12015	1397.12781	104.51672	342.48474	1384.22693	114.61272	256.80685	1479.23462	72.97562	298.81381	1289.76672	36.07601	361.68521	1231.74695	52.18460	292.00134	1251.99927	36.76733	243.43399	1282.97778	1076.70984	231.17522	1102.49902	1039.98438	144.86610	1072.70752	751.05237	81.23502	1058.56152	709.63794	86.63802	1019.15942	769.46564	99.04582	1008.42102	721.62616	94.87440	960.79602	513.03607	115.10947	0.00000	0.00000	0.00000	988.46722	302.82233	113.02033	973.02679	262.52960	124.25874	929.19678	320.05212	115.40034	920.98285	274.37640	125.71172	927.89868	95.63087	154.98181	892.59235	121.76304	238.46635	976.55737	45.33414	214.23302	745.54712	88.44121	212.44893	745.70618	115.06580	166.00485	798.25409	65.68604	110.39759
953	3.80800	1284.21582	1081.87134	304.40033	1093.77747	1023.80182	411.24356	1247.85083	719.38586	432.67743	1246.93005	675.75122	424.68246	1184.24231	714.50330	433.48105	1190.72949	670.18182	426.26321	1276.85791	510.00037	391.52023	1277.10974	515.74396	268.41113	1381.73425	290.95627	378.84235	1386.36243	248.10881	371.88840	0.00000	0.00000	0.00000	1334.54907	234.14305	371.18881	1396.23035	105.03642	342.38867	1383.62524	114.86371	256.82120	1478.95361	73.74539	298.84427	1289.14575	35.81811	361.81064	1231.49011	51.89035	291.93530	1251.95898	36.77376	243.45891	1276.88672	1075.45532	230.95001	1096.20178	1038.71606	144.87422	1066.58069	749.64124	81.84213	1053.38904	708.90247	86.26813	1012.98883	768.20422	99.05522	1002.42023	720.22302	95.39828	953.58453	512.56641	115.85630	934.49854	492.77557	240.12781	976.65649	302.21371	113.60168	960.00317	261.86353	124.85741	917.56769	320.44067	115.98090	908.28931	274.92258	126.24567	910.78296	95.95450	155.45876	876.11084	122.96735	239.16187	957.88727	44.16603	214.59584	728.07068	93.11413	212.96254	729.47412	120.23389	167.45767	781.55969	69.87212	111.18337
954	3.81200	1278.19434	1080.60754	304.18604	1087.91101	1022.60223	411.38898	1243.93433	719.22113	432.68430	1242.68140	675.04901	424.79327	1180.40637	714.08136	433.63251	1187.44421	670.42328	424.81750	1274.07251	509.92609	391.55884	1274.36694	515.76190	268.45840	1379.28845	291.12195	378.43680	1385.72107	249.02432	372.06534	0.00000	0.00000	0.00000	1334.09302	234.48805	371.40088	1395.85632	105.56094	342.42099	1383.16040	115.36110	256.85657	1478.72192	74.56860	298.82578	1289.10193	35.76769	361.82059	1231.40442	51.83028	291.96570	1251.90906	36.79280	243.49680	1270.79529	1074.21216	230.73737	1089.88025	1037.36035	144.89906	1060.50073	748.06042	82.45192	1048.20984	708.08484	85.93781	1006.87872	766.61444	99.58472	996.37402	718.85596	95.74932	946.29181	511.96405	116.78210	965.87799	516.52832	242.84155	964.95782	301.65131	114.18671	947.14136	261.32187	125.51174	906.11011	320.87695	116.50440	895.77338	275.56281	126.75414	893.78571	96.41676	155.92094	860.00671	124.15128	239.66196	939.77100	43.38420	214.91489	711.33539	98.17095	213.98465	713.05811	125.14343	168.19559	762.47388	73.07765	111.46456
955	3.81600	1272.16333	1079.30249	304.00226	1081.88733	1021.23096	411.43539	1239.93433	719.02856	432.70898	1238.28345	674.53876	424.88486	1176.50891	713.58087	433.80508	1184.42139	670.01892	425.00595	1271.30908	509.86581	391.62753	1271.69580	515.85791	268.37711	1378.83337	292.12238	378.92773	1383.83069	249.18410	371.89859	1317.32507	275.02301	380.06168	1332.31018	234.62453	371.24857	1395.42993	106.13558	342.43793	1382.68994	115.86336	256.87521	1478.30139	75.93681	299.16324	1289.55457	35.84244	361.92374	1231.33276	51.77279	291.92844	1251.81702	36.81282	243.50725	1264.66724	1072.96045	230.47018	1083.43018	1035.95032	144.89424	1054.67322	746.54962	82.86165	1042.95007	707.13513	85.71210	1001.20569	765.06812	100.14535	990.32434	717.22418	96.25516	939.30365	511.68195	117.63557	959.25787	515.46924	243.62929	952.93073	300.55933	114.98394	934.36847	260.85278	126.13058	894.23999	320.95712	117.29203	883.36829	276.13815	127.33895	877.05817	97.05550	156.40045	844.15106	125.47969	240.25439	921.87134	42.75749	215.18468	694.75403	103.22905	214.77483	697.10602	130.27235	169.12463	0.00000	0.00000	0.00000
956	3.82000	1266.15247	1078.00317	303.78754	1075.80750	1019.81592	411.48859	1235.88293	718.78351	432.74374	1234.62793	674.54712	424.82294	1172.30994	712.91473	433.80545	1179.11865	668.74420	425.33768	1268.29773	509.75793	391.65094	1268.63586	515.72327	268.44019	1377.16321	292.65649	378.92810	1382.42847	249.71579	371.94339	1315.63123	275.10501	379.92374	1331.74121	235.03427	371.62509	1395.50781	106.78155	342.49384	1382.33411	116.66694	256.92120	1477.93555	76.78737	299.16962	1289.48828	35.83329	361.89029	1231.20081	51.73174	291.97598	1251.75439	36.87669	243.56335	1258.50574	1071.62634	230.22624	1076.95825	1034.43835	145.07167	1048.59949	744.86853	83.38486	1037.53638	706.00354	85.65608	994.91681	763.57806	100.25953	983.81445	715.70398	96.41811	931.88177	510.63367	118.50462	952.67303	514.33484	244.36806	941.17725	299.77765	115.66650	921.77655	260.47437	126.76691	882.74200	321.14746	117.96252	870.99030	276.71570	128.10474	860.58887	97.69703	156.83279	829.54279	127.39041	240.55945	904.10193	42.33359	215.40573	678.49878	108.49675	215.72356	681.64008	135.62476	170.25093	727.89630	81.10577	113.00671
957	3.82400	1260.08411	1076.64136	303.55194	1070.01489	1018.65399	411.67441	1231.63782	718.46283	432.82800	1230.57080	674.22888	424.79288	1168.00879	712.07471	433.84302	1175.11023	668.20496	425.39191	1265.17017	509.59100	391.68839	1265.46118	515.64178	268.48376	1374.57874	292.74988	378.60876	1381.39124	250.70750	371.99261	1314.46997	275.85349	380.10461	1330.38928	235.29018	371.63126	1394.51038	107.26154	342.41803	1381.82800	117.29463	257.03571	1477.90320	77.49501	298.90643	1289.43921	35.82764	361.84750	1231.13269	51.74520	291.97119	1251.66882	36.85263	243.57877	1252.32129	1070.27100	229.99875	1070.55273	1033.01477	145.13141	1042.72058	743.18353	83.76740	1031.89502	704.64001	85.83485	988.94446	761.94598	100.60556	978.23627	714.13489	97.18912	924.62299	509.91635	119.42706	946.07971	513.10382	245.11160	929.57111	299.05743	116.35905	909.40625	260.18185	127.42508	871.50665	321.52411	118.66615	859.05676	277.48666	128.63676	844.43622	98.61384	157.34195	813.90656	128.35278	241.37889	886.68945	41.89383	215.63062	662.92499	113.95486	216.93785	666.34003	140.90454	171.40698	710.91724	85.26720	113.94399
